#N canvas 645 195 1920 987 12;
#X msg 175 78 disconnect;
#X text 313 210 TCP \, FUDI;
#X obj 307 253 print backwards;
#X floatatom 159 281 2 0 0 0 - - - 0;
#X obj 159 244 tgl 19 0 empty empty empty 0 -10 0 12 #dfdfdf #000000 #000000 0 1;
#X listbox 195 187 15 0 0 0 - - - 0;
#X msg 195 135 list TCP Message;
#X text 188 112 lists send messages;
#X msg 213 160 1 2 3 4;
#X msg 165 44 connect localhost 5050;
#X obj 158 215 netsend 0.0.0.0 5050;
#X obj 324 171 hsl 162 19 0 127 0 0 empty empty empty -2 -10 0 12 #fcfcfc #000000 #000000 0 1;
#X obj 62 244 send value;
#X obj 221 341 netreceive 5050;
#X obj 225 380 print;
#X connect 0 0 10 0;
#X connect 4 0 3 0;
#X connect 5 0 10 0;
#X connect 6 0 5 0;
#X connect 8 0 5 0;
#X connect 9 0 10 0;
#X connect 10 0 4 0;
#X connect 10 0 12 0;
#X connect 10 1 2 0;
#X connect 11 0 10 0;
#X connect 13 0 14 0;
