#N canvas -874 341 771 423 12;
#X floatatom 90 252 5 0 0 0 - - - 0;
#X floatatom 138 250 5 0 0 0 - - - 0;
#X floatatom 230 248 5 0 0 0 - - - 0;
#X floatatom 186 251 5 0 0 0 - - - 0;
#X obj 146 154 print;
#X floatatom 277 251 5 0 0 0 - - - 0;
#X floatatom 325 249 5 0 0 0 - - - 0;
#X floatatom 417 247 5 0 0 0 - - - 0;
#X floatatom 373 250 5 0 0 0 - - - 0;
#X floatatom 468 247 5 0 0 0 - - - 0;
#X obj 306 171 unpack f f f f f f f f f;
#X obj 145 126 netreceive -u -b 3333;
#X msg 145 91 listen 3333;
#X connect 10 0 0 0;
#X connect 10 1 1 0;
#X connect 10 2 3 0;
#X connect 10 3 2 0;
#X connect 10 4 5 0;
#X connect 10 4 6 0;
#X connect 10 5 8 0;
#X connect 10 6 7 0;
#X connect 10 7 9 0;
#X connect 11 0 4 0;
#X connect 11 0 10 0;
#X connect 12 0 11 0;
